<?xml version="1.0" standalone="no"?>
<!DOCTYPE svg PUBLIC "-//W3C//DTD SVG 20010904//EN"
 "http://www.w3.org/TR/2001/REC-SVG-20010904/DTD/svg10.dtd">
<svg version="1.0" xmlns="http://www.w3.org/2000/svg"
 width="500.000000pt" height="500.000000pt" viewBox="0 0 500.000000 500.000000"
 preserveAspectRatio="xMidYMid meet">

<g transform="translate(0.000000,500.000000) scale(0.100000,-0.100000)"
fill="#000000" stroke="none">
<path d="M2679 3776 c-16 -20 -28 -21 -200 -26 -167 -5 -192 -9 -266 -34 -46
-15 -83 -31 -83 -36 0 -18 34 -18 70 0 92 47 244 63 336 35 60 -18 136 -74
183 -135 27 -36 33 -40 28 -20 -3 14 -13 68 -23 120 -20 116 -24 124 -45 96z"/>
<path d="M1372 3728 c54 -48 53 -34 56 -586 3 -564 0 -605 -48 -654 l-28 -28
161 0 c146 1 159 2 136 15 -49 27 -59 74 -59 291 l0 196 128 -4 c150 -4 183
-17 272 -107 69 -70 111 -134 207 -314 93 -175 143 -247 229 -326 37 -33 62
-61 56 -61 -20 0 -155 62 -212 98 -79 49 -188 166 -239 256 -53 93 -97 218
-114 322 -12 77 -12 77 -52 94 -22 10 -59 20 -82 24 -43 6 -43 6 -43 -25 0
-89 78 -299 151 -406 154 -227 385 -361 700 -408 141 -21 354 -16 574 15 412
57 596 62 777 21 96 -22 126 -35 211 -93 33 -22 61 -37 63 -35 9 9 -142 116
-213 151 -130 65 -208 81 -373 80 -87 -1 -175 -8 -220 -17 -41 -9 -129 -27
-195 -41 -160 -34 -397 -37 -497 -6 -146 45 -257 143 -441 390 -161 216 -269
328 -355 368 l-61 29 48 6 c110 13 243 89 305 175 51 69 69 137 64 236 -9 177
-123 297 -323 342 -50 11 -149 17 -340 20 l-270 6 27 -24z m534 -28 c72 -25
133 -75 166 -136 59 -109 63 -275 10 -388 -68 -145 -172 -196 -399 -196 l-93
0 0 370 0 370 130 0 c104 0 142 -4 186 -20z"/>
<path d="M1922 3533 c-119 -125 -192 -304 -192 -474 l0 -62 63 7 c113 13 107
8 107 95 0 145 48 311 120 418 29 43 30 47 15 69 -8 13 -21 24 -28 24 -6 0
-45 -34 -85 -77z"/>
<path d="M2351 1946 c-6 -7 -9 -21 -5 -30 3 -9 2 -16 -4 -16 -13 0 -23 -27
-16 -45 4 -8 18 -15 33 -14 26 0 26 0 3 10 -14 5 -22 16 -20 26 5 27 22 25 40
-7 10 -17 25 -30 35 -29 11 0 13 3 6 6 -7 2 -13 9 -13 15 0 5 -7 16 -15 24 -9
10 -13 26 -10 42 5 27 5 27 -5 3 -8 -18 -14 -21 -22 -13 -8 8 -8 15 2 27 7 8
10 15 7 15 -2 0 -10 -6 -16 -14z"/>
<path d="M3156 1947 c-26 -19 -14 -44 26 -55 41 -10 43 -35 3 -43 -22 -5 -24
-7 -8 -8 32 -2 53 9 53 28 0 22 -19 41 -41 41 -23 0 -34 19 -21 32 8 8 18 6
36 -6 21 -13 24 -14 20 -1 -4 8 -10 15 -14 15 -5 0 -14 2 -22 5 -7 3 -22 -1
-32 -8z"/>
<path d="M1126 1934 c-4 -9 -4 -19 -1 -22 3 -3 5 1 5 9 0 11 2 11 10 -1 5 -8
10 -21 10 -27 0 -17 -27 -17 -32 -1 -3 7 -10 -2 -16 -20 -6 -19 -7 -32 -1 -32
5 0 9 7 9 15 0 9 9 15 25 15 16 0 25 -6 25 -15 0 -8 6 -15 14 -15 11 0 10 11
-7 55 -23 58 -31 65 -41 39z"/>
<path d="M1288 1895 l-3 -56 39 3 c24 2 41 9 44 18 4 12 2 13 -9 3 -7 -7 -21
-13 -31 -13 -15 0 -18 9 -18 50 0 68 -17 64 -22 -5z"/>
<path d="M1483 1898 c27 -66 26 -65 37 -48 13 19 13 33 0 25 -5 -3 -14 13 -21
35 -7 22 -18 40 -25 40 -9 0 -6 -15 9 -52z"/>
<path d="M1540 1935 c0 -8 2 -15 4 -15 2 0 6 7 10 15 3 8 1 15 -4 15 -6 0 -10
-7 -10 -15z"/>
<path d="M1695 1933 c17 -42 17 -53 0 -53 -12 0 -15 5 -9 23 10 33 -2 18 -19
-25 -14 -32 -14 -38 -2 -38 9 0 12 6 8 16 -5 12 0 15 23 12 17 -2 28 -8 27
-15 -2 -7 4 -13 12 -13 12 0 12 8 -5 50 -11 28 -20 53 -20 55 0 3 -5 5 -11 5
-7 0 -8 -7 -4 -17z"/>
<path d="M1859 1904 c2 -32 -1 -49 -10 -55 -11 -6 -9 -9 7 -9 17 0 20 5 16 25
-2 14 0 25 6 25 6 0 19 -11 30 -25 11 -14 26 -25 33 -25 7 0 3 10 -11 25 -23
24 -23 26 -5 39 29 21 12 46 -32 46 l-38 0 4 -46z m59 19 c-2 -10 -13 -19 -26
-21 -17 -3 -22 2 -22 17 0 16 6 21 26 21 19 0 25 -5 22 -17z"/>
<path d="M2050 1931 c-36 -68 45 -129 86 -65 19 28 11 73 -14 82 -10 3 -10 -2
-1 -21 6 -14 9 -37 5 -52 -5 -21 -12 -26 -34 -23 -23 2 -28 8 -30 36 -2 18 2
40 9 48 8 9 8 14 1 14 -6 0 -16 -9 -22 -19z"/>
<path d="M2620 1884 c0 -63 -1 -65 -22 -59 -19 6 -21 5 -10 -6 9 -10 17 -11
30 -3 12 8 18 28 20 73 2 38 -1 61 -8 61 -6 0 -10 -27 -10 -66z"/>
<path d="M2755 1895 l0 -55 37 0 c20 0 39 4 42 8 2 4 -11 6 -30 4 -30 -4 -34
-1 -34 18 0 18 4 21 25 18 15 -3 25 -1 25 7 0 6 -10 11 -22 11 -14 -1 -24 6
-26 18 -3 16 1 18 32 14 20 -2 36 0 36 4 0 4 -19 8 -42 8 l-43 0 0 -55z"/>
<path d="M2948 1895 c-2 -45 0 -55 13 -55 12 0 15 7 11 25 -2 14 0 25 6 25 5
0 17 -11 26 -25 9 -14 21 -25 27 -25 6 0 1 12 -11 27 -16 21 -18 29 -8 32 42
13 22 51 -27 51 -33 0 -33 0 -37 -55z m68 34 c7 -12 -12 -29 -33 -29 -7 0 -13
9 -13 20 0 22 34 28 46 9z"/>
<path d="M3341 1921 c14 -19 20 -38 17 -55 -4 -20 -1 -26 12 -26 13 0 16 6 13
24 -3 14 2 35 11 48 9 12 16 27 16 33 -1 5 -8 -3 -17 -19 -15 -28 -16 -29 -29
-11 -8 10 -14 22 -14 27 0 4 -7 8 -15 8 -13 0 -11 -6 6 -29z"/>
<path d="M2406 1905 c4 -8 7 -15 9 -15 2 0 5 7 9 15 3 9 0 15 -9 15 -9 0 -12
-6 -9 -15z"/>
</g>
</svg>
